<?xml version="1.0" standalone="no"?><!DOCTYPE svg PUBLIC "-//W3C//DTD SVG 1.1//EN" "http://www.w3.org/Graphics/SVG/1.1/DTD/svg11.dtd"><svg t="1715598519646" class="icon" viewBox="0 0 1024 1024" version="1.1" xmlns="http://www.w3.org/2000/svg" p-id="2728" xmlns:xlink="http://www.w3.org/1999/xlink" width="200" height="200"><path d="M446.933333 539.818667a54.656 54.656 0 0 0-0.384-11.136l-33.024-216.576c-1.536-9.472-5.376-16.64-11.52-21.504a29.610667 29.610667 0 0 0-19.968-7.68 34.773333 34.773333 0 0 0-20.352 6.144c-5.632 3.84-10.112 11.776-13.44 23.808l-42.624 161.28L261.845333 313.6c-3.584-12.288-8.192-20.48-13.824-24.576a34.304 34.304 0 0 0-20.736-6.144 30.634667 30.634667 0 0 0-20.736 7.253333c-5.376 4.906667-8.704 11.818667-9.984 20.778667l-33.024 217.728c-1.792 10.752-1.152 18.304 1.92 22.613333 3.072 4.650667 8.576 6.954667 16.512 6.954667 9.728 0 16.384-2.304 19.968-6.912 3.84-4.352 6.4-11.136 7.68-20.352l18.048-135.936c1.024-6.144 2.432-9.216 4.224-9.216 2.048 0 3.968 3.072 5.76 9.216 7.168 24.832 14.336 49.408 21.504 73.728 7.424 24.064 14.848 48.512 22.272 73.344 0.768 2.816 1.536 5.248 2.304 7.253333a14.464 14.464 0 0 0 4.224 4.650667c1.792 1.536 4.096 2.56 6.912 3.072a41.813333 41.813333 0 0 0 10.752 1.152c8.192 0 13.696-1.536 16.512-4.608a23.168 23.168 0 0 0 6.528-11.52L371.669333 394.666667c1.792-5.888 3.712-8.832 5.76-8.832 2.048 0 3.584 2.944 4.608 8.832l18.432 138.624c1.28 8.96 3.328 15.36 6.144 19.2 3.072 4.096 8.704 5.973333 16.896 5.76a29.44 29.44 0 0 0 13.824-2.688 15.957333 15.957333 0 0 0 7.296-6.144 19.712 19.712 0 0 0 2.304-9.6zM620.8 511.402667h-92.928v-73.728h89.088c8.192 0 14.08-1.536 17.664-4.608 3.584-3.328 5.376-8.832 5.376-16.512 0-7.68-1.792-13.226667-5.376-16.512-3.584-3.584-9.472-5.376-17.664-5.376h-89.088V329.770667h92.928c7.424 0 13.184-1.536 17.28-4.608 4.096-3.328 6.016-8.96 5.76-16.896-0.256-7.936-2.304-13.44-6.144-16.512-3.584-3.328-9.088-4.992-16.512-4.992h-118.656c-8.192 0-14.336 1.536-18.432 4.608-4.096 3.072-6.144 8.533333-6.144 16.512v225.408c0 8.192 2.176 13.824 6.528 16.896 4.352 2.816 10.368 4.224 18.048 4.224h118.272c9.728 0 16.64-1.536 20.736-4.608 4.096-3.072 6.144-8.704 6.144-16.896 0-8.192-2.048-13.824-6.144-16.896-4.096-3.072-11.008-4.608-20.736-4.608zM737.536 370.474667a23.424 23.424 0 0 1-5.376-15.36c0-3.584 0.768-7.168 2.304-10.752a31.445333 31.445333 0 0 1 16.128-17.28 27.306667 27.306667 0 0 1 13.056-3.072 42.24 42.24 0 0 1 12.672 1.92c4.352 1.28 8.32 2.816 11.904 4.608 3.84 1.792 7.424 3.84 10.752 6.144 3.328 2.048 6.272 3.968 8.832 5.76 1.792 1.536 4.096 2.56 6.912 3.072a23.424 23.424 0 0 0 8.448 0 30.848 30.848 0 0 0 8.448-3.456 22.272 22.272 0 0 0 6.912-6.912 18.773333 18.773333 0 0 0 1.152-17.664 39.978667 39.978667 0 0 0-13.824-17.664 84.394667 84.394667 0 0 0-25.344-13.44 107.52 107.52 0 0 0-33.408-5.76 104.021333 104.021333 0 0 0-31.872 4.224c-10.24 3.072-19.456 7.68-27.648 13.824a71.04 71.04 0 0 0-19.968 23.424 68.138667 68.138667 0 0 0-7.296 32.256c0 11.52 2.048 21.504 6.144 29.952 4.096 8.448 9.6 15.744 16.512 21.888 6.912 6.144 14.976 11.52 24.192 16.128 9.472 4.352 19.584 8.448 30.336 12.288 3.84 1.28 8.064 3.072 12.672 5.376 4.864 2.304 9.216 5.248 13.056 8.832 4.096 3.328 7.552 7.253333 10.368 11.904a30.293333 30.293333 0 0 1 4.224 16.128 36.949333 36.949333 0 0 1-12.672 29.568 40.96 40.96 0 0 1-13.44 7.68 43.008 43.008 0 0 1-14.976 2.688c-6.144 0-11.904-0.768-17.28-2.304a106.24 106.24 0 0 1-14.976-5.76 233.216 233.216 0 0 1-13.44-8.106667 263.552 263.552 0 0 0-11.904-8.405333 19.882667 19.882667 0 0 0-14.208-3.072c-4.864 0.512-9.088 3.584-12.672 9.216a19.285333 19.285333 0 0 0-3.456 10.368c0 4.096 0.896 8.32 2.688 12.672 1.792 4.352 4.608 8.704 8.448 13.056 4.096 4.096 9.472 7.808 16.128 11.093333 7.424 3.84 16.128 7.338667 26.112 10.410667 10.24 3.328 21.12 4.693333 32.64 4.224 31.488-1.024 54.912-9.216 70.272-24.576 15.36-15.616 23.296-36.096 23.808-61.44a71.509333 71.509333 0 0 0-3.456-25.344 50.090667 50.090667 0 0 0-11.904-19.968 93.354667 93.354667 0 0 0-20.736-16.512 268.672 268.672 0 0 0-29.952-15.36 380.373333 380.373333 0 0 0-15.744-6.528 111.701333 111.701333 0 0 1-16.512-8.448 56.96 56.96 0 0 1-13.056-11.52z" fill="#1296db" p-id="2729"></path><path d="M305.664 44.714667c-39.978667 0-71.68 0-97.28 2.133333-26.112 2.133333-48.298667 6.570667-68.522667 16.896a174.250667 174.250667 0 0 0-76.117333 76.117333c-10.325333 20.224-14.805333 42.410667-16.938667 68.522667-2.090667 25.6-2.090667 57.301333-2.090666 97.28v217.344c0 39.978667 0 71.68 2.133333 97.28 2.133333 26.112 6.570667 48.256 16.896 68.48a174.208 174.208 0 0 0 76.117333 76.16c20.224 10.325333 42.410667 14.762667 68.522667 16.896 25.6 2.133333 57.301333 2.133333 97.28 2.133333h32.085333v104.490667c-21.376 3.626667-40.064 7.68-56.064 11.818667-24.96 6.4-43.52 12.842667-56.064 17.92a246.314667 246.314667 0 0 0-18.346666 8.106666l-1.109334 0.64-0.426666 0.213334-0.128 0.085333h-0.042667s-0.042667 0.042667 13.397333 24.32l-13.44-24.277333a27.733333 27.733333 0 0 0 26.794667 48.554666h0.042667l0.341333-0.213333 2.389333-1.152c2.261333-1.066667 5.973333-2.730667 11.093334-4.821333a403.370667 403.370667 0 0 1 49.28-15.658667c45.226667-11.605333 116.181333-23.552 216.533333-23.552 100.352 0 171.264 11.946667 216.533333 23.552 22.613333 5.802667 38.912 11.52 49.237334 15.658667a192.512 192.512 0 0 1 13.525333 5.973333l0.298667 0.170667 0.085333 0.042666a27.733333 27.733333 0 0 0 26.794667-48.554666l-13.44 24.277333 13.44-24.277333-0.085334-0.042667-0.170666-0.085333-0.384-0.213334-1.152-0.597333a245.888 245.888 0 0 0-18.346667-8.192c-12.501333-5.034667-31.061333-11.52-56.021333-17.92a694.016 694.016 0 0 0-56.064-11.776v-104.533333h32.085333c39.978667 0 71.68 0 97.28-2.090667 26.112-2.133333 48.256-6.570667 68.522667-16.896a174.208 174.208 0 0 0 76.117333-76.16c10.325333-20.224 14.762667-42.368 16.938667-68.522667 2.090667-25.557333 2.090667-57.258667 2.090666-97.28V305.706667c0-39.978667 0-71.68-2.133333-97.28-2.133333-26.112-6.570667-48.298667-16.896-68.522667a174.250667 174.250667 0 0 0-76.117333-76.117333c-20.266667-10.325333-42.410667-14.805333-68.522667-16.938667-25.6-2.090667-57.301333-2.090667-97.28-2.090667H305.664z m87.552 836.138666v-96.938666h237.568v96.938666A1137.194667 1137.194667 0 0 0 512 874.965333c-44.842667 0-84.352 2.261333-118.784 5.888z m323.882667-152.405333H306.901333c-41.514667 0-70.954667 0-93.994666-1.92-22.698667-1.834667-36.736-5.376-47.872-11.008a118.784 118.784 0 0 1-51.882667-51.925333c-5.674667-11.093333-9.173333-25.173333-11.050667-47.872-1.877333-23.04-1.92-52.48-1.92-93.952V306.901333c0-41.514667 0.042667-70.954667 1.92-93.994666 1.877333-22.698667 5.376-36.736 11.050667-47.872 11.392-22.314667 29.568-40.533333 51.882667-51.882667 11.093333-5.674667 25.173333-9.173333 47.872-11.050667 23.04-1.877333 52.48-1.92 93.994666-1.92h410.197334c41.514667 0 70.954667 0.042667 93.994666 1.92 22.698667 1.877333 36.736 5.376 47.829334 11.050667 22.357333 11.392 40.533333 29.568 51.925333 51.882667 5.674667 11.093333 9.173333 25.173333 11.050667 47.872 1.877333 23.04 1.877333 52.48 1.877333 93.994666v214.869334c0 41.472 0 70.912-1.877333 93.952-1.877333 22.741333-5.376 36.778667-11.050667 47.872-11.392 22.357333-29.568 40.533333-51.882667 51.925333-11.093333 5.632-25.173333 9.173333-47.872 11.008-23.04 1.92-52.48 1.92-93.994666 1.92z m87.04 224.64l-12.544 22.698667h-0.042667l12.629333-22.698667z" fill="#1296db" p-id="2730"></path></svg>