<svg width="456" height="456" xmlns="http://www.w3.org/2000/svg" class="icon" viewBox="0 0 0 456 456">

    <path stroke="null" id="svg_1" fill="#1296db" d="m185.350009,348.533329l-13.05,0l0,-63.799989l-28.588203,49.625759l-32.311801,-49.625759l0,63.799989l-17.399998,0l0,-106.333319l17.399998,0l32.311801,56.707559l29.210256,-56.707559l16.777946,0l0,106.333319l-4.349998,0zm87.000005,0l-65.250002,0l0,-106.333319l65.250002,0l0,21.26666l-47.850004,0l0,21.26666l39.150001,0l0,21.266669l-39.150001,0l0,21.266669l47.850004,0l0,21.26666zm82.65,0l-65.250002,0l0,-21.26666l47.850004,0l0,-21.266669l-47.850004,0l0,-63.799989l65.250002,0l0,21.26666l-47.849997,0l0,21.266669l47.849997,0l0,63.799989z"/>
    <path stroke="null" id="svg_2" fill="#1296db" d="m221.804791,187.62693c-34.681778,0 -48.819225,22.153117 -48.819225,41.456669c4.087033,0.156804 21.78613,0 21.78613,0s43.647321,-0.919219 54.46875,0l3.971038,0c-0.143286,-0.248731 -0.484442,-0.470426 -1.330503,-0.573159c11.517375,0.611007 13.018456,-1.113878 17.351121,0.573159c0,-19.298142 -9.71608,-41.456669 -47.427311,-41.456669zm131.262649,8.132365l-26.630528,-2.065537c-1.29639,-2.07094 -1.944582,-4.14188 -3.247793,-6.21282l17.535348,-16.562117c1.944582,-2.07094 1.944582,-4.655564 0,-6.207417l-42.876314,-34.162409c-2.606423,-2.070946 -5.847387,-2.070946 -7.805618,-0.519087l-20.783141,13.458412c-2.592773,-1.038175 -5.199196,-2.07094 -7.805618,-2.590027l-2.592773,-21.217681c-0.634549,-2.595437 -3.234144,-4.14729 -5.833745,-4.14729l-60.418476,0c-3.254614,0 -5.854216,2.06553 -5.854216,4.14188l-2.585952,21.217681c-2.599601,1.032765 -5.206024,1.551853 -7.805618,2.590027l-20.77632,-13.97209c-2.599594,-1.551859 -5.854208,-1.551859 -7.805611,0l-42.869493,34.157006c-2.599594,2.070934 -2.599594,4.655558 -0.655013,6.207411l16.887149,16.562117c-1.29639,2.070946 -2.592773,4.141886 -3.247786,6.207417l-26.637356,2.07094c-3.247793,0.519087 -5.192375,2.590027 -5.192375,4.660974l-0.225161,20.958131s-0.498084,7.726824 10.889655,8.737963l50.020091,0c1.951403,-0.519087 7.525867,-2.271003 7.525867,-3.822856l0,-1.551859c0,-29.501442 29.89197,-53.309144 69.513663,-52.790057c22.093173,0 40.283541,6.726498 51.323303,19.152145c10.568969,11.409098 15.536183,25.386597 15.106324,39.018036l68.046702,0l0,-28.663336c0,-2.584618 -2.599594,-4.655558 -5.199196,-4.655558z"/>
</svg>