<?xml version="1.0" standalone="no"?>
<!DOCTYPE svg PUBLIC "-//W3C//DTD SVG 1.1//EN" "http://www.w3.org/Graphics/SVG/1.1/DTD/svg11.dtd">
<svg t="1715586383628" class="icon" viewBox="0 0 1024 1024" version="1.1" xmlns="http://www.w3.org/2000/svg" p-id="2525" xmlns:xlink="http://www.w3.org/1999/xlink" width="200" height="200">
	<path d="M358.4 904.533333h-51.2V699.733333l-112.162133 159.300267L68.266667 699.733333v204.8H0V563.2h68.266667l126.7712 182.033067L309.640533 563.2H375.466667v341.333333h-17.066667z m341.333333 0H443.733333V563.2h256v68.266667H512v68.266666h153.6v68.266667h-153.6v68.266667h187.733333v68.266666z m324.266667 0H768v-68.266666h187.733333v-68.266667H768V563.2h256v68.266667H836.266667v68.266666h187.733333v204.8z" p-id="2526" fill="#1296db"></path>
	<path d="M494.933333 364.0832c-86.749867 0-122.112 69.922133-122.112 130.850133 10.222933 0.494933 54.493867 0 54.493867 0s109.175467-2.901333 136.2432 0h9.9328c-0.3584-0.785067-1.211733-1.4848-3.328-1.809066 28.808533 1.928533 32.5632-3.515733 43.400533 1.809066 0-60.910933-24.302933-130.850133-118.6304-130.850133z m328.328534 25.668267l-66.6112-6.519467c-3.242667-6.536533-4.864-13.073067-8.123734-19.6096l43.861334-52.2752c4.864-6.536533 4.864-14.6944 0-19.592533l-107.246934-107.8272c-6.519467-6.536533-14.626133-6.536533-19.524266-1.6384l-51.985067 42.478933c-6.485333-3.2768-13.0048-6.536533-19.524267-8.174933l-6.485333-66.9696c-1.5872-8.192-8.0896-13.090133-14.592-13.090134h-151.125333c-8.1408 0-14.6432 6.519467-14.6432 13.073067l-6.468267 66.9696c-6.5024 3.259733-13.021867 4.898133-19.524267 8.174933l-51.968-44.100266c-6.5024-4.898133-14.6432-4.898133-19.524266 0l-107.229867 107.810133c-6.5024 6.536533-6.5024 14.6944-1.6384 19.592533l42.24 52.2752c-3.242667 6.536533-6.485333 13.073067-8.123733 19.592534l-66.628267 6.536533c-8.123733 1.6384-12.987733 8.174933-12.987733 14.711467l-0.5632 66.1504S153.6 491.707733 182.084267 494.8992H307.2c4.881067-1.6384 18.824533-7.168 18.824533-12.066133v-4.898134c0-93.115733 74.769067-168.260267 173.8752-166.621866 55.261867 0 100.7616 21.230933 128.375467 60.450133 26.436267 36.010667 38.8608 80.128 37.7856 123.153067H836.266667v-90.4704c0-8.157867-6.5024-14.6944-13.0048-14.6944z" p-id="2527" fill="#1296db"></path>
</svg>